<!-- Generator: Adobe Illustrator 21.1.0, SVG Export Plug-In  -->
<svg version="1.1"
	 xmlns="http://www.w3.org/2000/svg" xmlns:xlink="http://www.w3.org/1999/xlink" xmlns:a="http://ns.adobe.com/AdobeSVGViewerExtensions/3.0/"
	 x="0px" y="0px" width="496.5px" height="158.1px" viewBox="0 0 496.5 158.1" style="enable-background:new 0 0 496.5 158.1;"
	 xml:space="preserve">
<style type="text/css">
	.st0{fill-rule:evenodd;clip-rule:evenodd;fill:#52B9C0;}
	.st1{fill-rule:evenodd;clip-rule:evenodd;fill:#F9F9FA;}
</style>
<defs>
</defs>
<path class="st0" d="M96.2,43.8c-2.9,4.1-5.9,8.3-8.8,12.4c-9.5,13.5-19.1,26.9-28.6,40.4c-0.3,0.4-0.5,0.7-0.9,1.1
	c-2.4,2.6-4.4,2.5-6.6-0.4c-3.7-5-7.3-10.1-10.9-15.1c-8.6-12-17.2-23.9-25.7-35.9c-0.3-0.4-0.6-0.7-1-1.1c-0.1,0-0.2,0.1-0.3,0.1
	c0,0.4-0.1,0.9-0.1,1.3c0,22.8,0.1,45.6,0.2,68.5c0,0.2,0,0.3,0,0.5c0,5.9-4.9,8.9-10.3,6.3c-2.1-1-2.9-2.7-3.1-4.9
	c0-0.5,0-0.9,0-1.4c0-34,0-68,0-101.9c0-0.7,0-1.5,0.2-2.2C0.8,9.7,2.5,9,3.9,10c0.7,0.5,1.4,1.2,1.9,1.9
	C20.7,33,35.5,54.2,50.3,75.3c1.3,1.8,2.6,3.7,3.9,5.5c0.8,1.1,0.8,1.1,1.6,0c6.5-9.3,12.9-18.5,19.4-27.8
	c9.6-13.7,19.2-27.4,28.7-41.1c0.9-1.2,1.9-2.3,3.5-2.2c1.2,0.1,2.1,1,2.3,2.3c0.1,0.5,0.1,1,0.1,1.5c0,34.1,0,68.1,0,102.2
	c0,2.3-0.3,4.3-2.3,5.7c-3.7,2.6-9.7,0.9-10.8-3.2c-0.3-1-0.3-2.1-0.3-3.1c0-23.3,0-46.6,0-69.8c0-0.5,0-1,0-1.5
	C96.4,43.8,96.3,43.8,96.2,43.8z"/>
<path class="st0" d="M378.2,81.1c0.9,0.5,1.9,1,2.9,1.6c4.2,2.7,7.4,6.5,10.2,10.6c4.4,6.4,8.7,12.8,13,19.3c1.1,1.7,2,3.5,1.7,5.6
	c-0.3,2.3-1.8,3.6-3.9,4.3c-2.2,0.8-4.2,0.4-5.9-1.1c-0.9-0.8-1.6-1.7-2.3-2.6c-5.3-7.5-10.6-15-15.9-22.4c-2.5-3.5-5.6-6.6-9.8-8.1
	c-1.8-0.7-3.8-1.1-5.7-1.3c-3.1-0.2-6.2-0.1-9.4-0.1c0,0.5,0,1,0,1.5c0,9.2,0,18.3,0,27.5c0,0.9-0.1,1.8-0.2,2.6
	c-0.3,1.7-1.3,3-2.9,3.7c-2,0.9-4.1,0.9-6.1,0.2c-1.9-0.6-3.1-2-3.5-4.1c-0.2-0.9-0.2-1.7-0.2-2.6c0-36,0-72,0-107.9
	c0-1.2,0.1-2.5,0.6-3.7c0.9-2.7,3.8-4,7.1-3.7c2.8,0.3,4.7,2.1,5.1,5c0.1,0.8,0.2,1.7,0.2,2.5c0,22.1,0,44.1,0,66.2
	c0,0.5,0,1.1,0,1.6c3.1,0,6.2,0.1,9.2,0c3.9-0.1,7.4-1.5,10.3-4.2c2.2-2.2,4.3-4.4,6.3-6.8c4.7-5.4,9.3-10.9,14.1-16.3
	c3.9-4.4,8.7-2,10.2,1.1c1.1,2.3,0.4,4.3-1.1,6.2c-2.1,2.6-4.1,5.1-6.3,7.7c-3.4,4-6.7,8-10.3,11.8
	C383.4,77.1,380.7,78.9,378.2,81.1z"/>
<path class="st0" d="M496.5,84.5c0,9.6,0,19.1,0,28.7c0,2-0.3,4.1-0.7,6.1c-0.5,2.3-2.2,3.3-4.4,3.5c-2.4,0.2-4.5-0.7-5.3-2.7
	c-0.7-1.7-1-3.7-1.5-5.5c-0.1-0.3-0.1-0.6-0.2-0.8c-0.2-0.6-0.4-1.1-0.6-1.6c-0.5,0.3-1,0.6-1.4,1c-7.8,7.7-17.2,10.8-28,10.1
	c-5.5-0.4-10.8-1.4-15.8-3.8c-8.9-4.2-14.8-11-18-20.2c-2-6.1-2.7-12.4-2-18.8c1-9.6,4.9-17.9,12.1-24.5
	c8.4-7.7,18.4-10.9,29.6-10.2c8.4,0.5,15.7,3.8,21.7,9.8c0.3,0.3,0.6,0.6,0.9,0.9c0.8,0.7,1.1,0.6,1.3-0.4c0.4-1.8,0.7-3.5,1.1-5.3
	c0.9-4,4.2-5.7,8-4.1c2.2,0.9,2.8,3,3,5.1c0.2,3.5,0.2,7.1,0.2,10.6C496.5,69.7,496.5,77.1,496.5,84.5z M431.3,84.6
	c-0.1,3.7,0.5,7.2,1.6,10.7c1.8,5.7,4.9,10.4,10,13.6c5.7,3.7,12,4.7,18.6,3.8c8.4-1.1,14.8-5.3,18.6-12.9
	c4.4-8.5,4.8-17.4,1.8-26.3c-2.1-6.5-6.3-11.6-12.6-14.7c-4.9-2.4-10.1-3-15.5-2.3c-5.4,0.7-10.1,2.9-14.1,6.7
	C433.8,69.1,431.4,76.4,431.3,84.6z"/>
<path class="st0" d="M196.9,52.4c-0.2,0.6-0.5,2-1,3.2c-10.3,24.1-20.6,48.3-31,72.4c-3.6,8.4-7.2,16.8-10.8,25.2
	c-0.4,1-0.9,2-1.6,2.8c-1.8,2.4-4.4,2.8-7.5,1.1c-2.6-1.4-3.8-4.1-2.7-6.7c1.3-3.2,2.7-6.4,4.1-9.5c3-6.9,6-13.9,9-20.9
	c0.2-0.5,0.2-1.2,0-1.7c-9.1-21-18.2-41.9-27.2-62.9c-0.6-1.3-0.9-2.8-0.8-4.2c0.3-2.9,2.5-4.6,5.7-5.1c2.5-0.3,5,1.2,6.2,3.8
	c1.8,4.2,3.5,8.4,5.3,12.5c5.7,13.6,11.4,27.2,17.1,40.7c0.2,0.4,0.6,0.7,0.8,1.1c0.2-0.4,0.5-0.7,0.7-1.1
	c7.2-17.4,14.4-34.7,21.6-52.1c1-2.3,2.3-4.3,4.9-4.9C193,45.4,196.9,48.3,196.9,52.4z"/>
<path class="st0" d="M224.6,61.4c0,17.9,0,35.8,0,53.7c0,0.7,0,1.3-0.1,2c-0.2,3.3-2.3,5.3-5.7,5.4c-1,0-2,0-3-0.2
	c-2.5-0.6-4-2.5-4.2-5.1c0-0.4,0-0.8,0-1.1c0-36.4,0-72.7,0-109.1c0-2.8,0.9-5.1,3.6-6.3c4.5-2,8.9,0.6,9.2,5.5c0,0.6,0,1.2,0,1.8
	C224.6,25.8,224.6,43.6,224.6,61.4z"/>
<path class="st1" d="M291.6,111.7"/>
<path class="st0" d="M319.6,69.5c-2.9-7.6-7.7-13.7-14.6-18.1c-8.3-5.3-17.5-7-27.3-5.9c-8.1,0.9-15.3,4.1-21.4,9.6
	c-7.5,6.7-11.7,15.1-12.8,25c-0.8,7.6,0.3,15.1,3.5,22.1c3,6.5,7.4,11.6,13.5,15.4c1.8,1.1,3.7,2,5.6,2.8c0.1,0,0.2,0,0.3,0.1
	c1.5,0.6,2.4-0.4,2.5-0.6l3.6-6.7l0.1-0.3c0,0,0.6-1.4-1.7-2.4c0,0,0,0-0.1,0c-1-0.5-2-1-2.9-1.6c-5.1-3.3-8.3-8.1-10.2-13.8
	c-1.1-3.5-1.6-7.1-1.6-10.7c0.1-7.9,2.4-15,8-20.8c5.2-5.4,11.7-7.8,19.1-7.7c13.3,0.1,23,9.2,25.6,21.6c1.6,7.7,0.8,15.1-2.9,22.1
	c-2.9,5.5-7,9.3-12.3,11.4c-1.8,1-1.3,2.2-1.3,2.2l0.1,0.3l3.5,6.4c0,0,0.9,1.2,2.4,0.7c5.9-2.3,11-6,15.1-11.1
	c6-7.4,8.6-16,8.6-25.7C322.2,79,321.4,74.2,319.6,69.5z"/>
</svg>
