<!-- Generator: Adobe Illustrator 21.1.0, SVG Export Plug-In  -->
<svg version="1.1"
	 xmlns="http://www.w3.org/2000/svg" xmlns:xlink="http://www.w3.org/1999/xlink" xmlns:a="http://ns.adobe.com/AdobeSVGViewerExtensions/3.0/"
	 x="0px" y="0px" width="470.8px" height="249.2px" viewBox="0 0 470.8 249.2" style="enable-background:new 0 0 470.8 249.2;"
	 xml:space="preserve">
<style type="text/css">
	.st0{fill:none;stroke:#2C4251;stroke-width:2;stroke-linecap:round;stroke-miterlimit:10;}
	.st1{fill:#AAD2D4;}
	.st2{fill:#0D1836;stroke:#263A74;stroke-miterlimit:10;}
	.st3{fill:#F4F5F7;stroke:#F4F5F7;stroke-miterlimit:10;}
	.st4{fill:#0D1836;}
	.st5{fill:#FAE4BD;}
	.st6{fill:#FCF6EE;stroke:#263A74;stroke-miterlimit:10;}
	.st7{fill:#FCF6EE;}
	.st8{fill:#263A74;}
	.st9{fill:#53BAC0;}
	.st10{fill:none;stroke:#53BAC0;stroke-width:0.25;stroke-linecap:round;stroke-miterlimit:10;}
	.st11{fill:#263A74;stroke:#263A74;stroke-linecap:round;stroke-miterlimit:10;}
	.st12{fill:none;stroke:#263A74;stroke-linecap:round;stroke-miterlimit:10;}
</style>
<defs>
</defs>
<line class="st0" x1="316.9" y1="219.3" x2="350.9" y2="219.3"/>
<path class="st1" d="M302.3,202.9H115.5c-3.2,0-5.8-2.6-5.8-5.8V5.8c0-3.2,2.6-5.8,5.8-5.8h186.8c3.2,0,5.8,2.6,5.8,5.8v191.4
	C308.1,200.3,305.5,202.9,302.3,202.9z"/>
<path class="st2" d="M353.7,248.7H167c-3.2,0-5.8-2.6-5.8-5.8V51.5c0-3.2,2.6-5.8,5.8-5.8h186.8c3.2,0,5.8,2.6,5.8,5.8v191.4
	C359.5,246.1,356.9,248.7,353.7,248.7z"/>
<path class="st3" d="M330.5,227.4H143.3c-3.2,0-5.8-2.6-5.8-5.8v-196c0-3.2,2.6-5.8,5.8-5.8h187.2c3.2,0,5.8,2.6,5.8,5.8v196
	C336.2,224.8,333.7,227.4,330.5,227.4z"/>
<path class="st2" d="M284.6,137.1H174.8c-2.7,0-4.9-2.2-4.9-4.9V83.4c0-2.7,2.2-4.9,4.9-4.9h109.8c2.7,0,4.9,2.2,4.9,4.9v48.9
	C289.4,134.9,287.2,137.1,284.6,137.1z"/>
<path class="st4" d="M280.6,69.2h-16.7v-0.4c0-3.2,2.6-5.8,5.8-5.8h4.6C277.8,63,280.6,65.8,280.6,69.2L280.6,69.2z"/>
<path class="st5" d="M289.4,83.8H169.9V81c0-7.3,5.9-13.2,13.2-13.2h93.1c7.3,0,13.2,5.9,13.2,13.2V83.8z"/>
<path class="st6" d="M257.1,45.3h-31.8v0c0-4.4,3.6-8,8-8h15.8C253.5,37.3,257.1,40.9,257.1,45.3L257.1,45.3z"/>
<path class="st7" d="M266.1,131.5h-58.6c-3,0-5.5-2.5-5.5-5.5v-20.7c0-3,2.5-5.5,5.5-5.5h58.6c3,0,5.5,2.5,5.5,5.5V126
	C271.6,129,269.1,131.5,266.1,131.5z"/>
<circle class="st8" cx="240.3" cy="100.9" r="30.6"/>
<circle class="st8" cx="207.9" cy="125.7" r="2.8"/>
<circle class="st8" cx="207.9" cy="110.2" r="2.8"/>
<circle class="st8" cx="198.2" cy="78.5" r="5.3"/>
<path class="st4" d="M207.7,67.8h-11.4v-1.6c0-0.9,0.7-1.6,1.6-1.6h8.1c0.9,0,1.7,0.8,1.7,1.7V67.8z"/>
<polygon class="st4" points="263.9,67.8 218.3,67.8 225.2,45.3 257.1,45.3 "/>
<circle class="st4" cx="240.6" cy="101.5" r="26.3"/>
<circle class="st1" cx="240.6" cy="101.5" r="18"/>
<g>
	<g>
		<path class="st9" d="M238.6,125c14,1.6,26.9-11.2,24.6-25.4c-0.1-0.8-1.3-0.5-1.2,0.3c2.2,13.5-10.3,25.3-23.4,23.8
			C237.8,123.6,237.9,124.9,238.6,125L238.6,125z"/>
	</g>
</g>
<line class="st10" x1="227.5" y1="65.1" x2="257.1" y2="65.1"/>
<line class="st10" x1="235.8" y1="61.1" x2="255" y2="61.1"/>
<line class="st10" x1="242.8" y1="56.8" x2="253.5" y2="56.8"/>
<g>
	<g>
		<path class="st9" d="M206.3,112.9c3.2,0,3.2-5,0-5C203.1,107.9,203.1,112.9,206.3,112.9L206.3,112.9z"/>
	</g>
</g>
<g>
	<g>
		<path class="st9" d="M206.3,128.6c3.2,0,3.2-5,0-5C203.1,123.6,203.1,128.6,206.3,128.6L206.3,128.6z"/>
	</g>
</g>
<line class="st11" x1="184.6" y1="65.1" x2="184.6" y2="67.3"/>
<line class="st11" x1="185.3" y1="65.1" x2="185.3" y2="67.3"/>
<line class="st11" x1="186" y1="65.1" x2="186" y2="67.3"/>
<line class="st12" x1="197" y1="65.1" x2="197" y2="67.3"/>
<line class="st12" x1="197.7" y1="65.1" x2="197.7" y2="67.3"/>
<line class="st12" x1="198.5" y1="65.1" x2="198.5" y2="67.3"/>
<line class="st12" x1="199.1" y1="65.1" x2="199.1" y2="67.3"/>
<line class="st12" x1="199.9" y1="65.1" x2="199.9" y2="67.3"/>
<line class="st12" x1="200.6" y1="65.1" x2="200.6" y2="67.3"/>
<line class="st12" x1="201.2" y1="65.1" x2="201.2" y2="67.3"/>
<line class="st12" x1="202" y1="65.1" x2="202" y2="67.3"/>
<line class="st12" x1="202.7" y1="65.1" x2="202.7" y2="67.3"/>
<line class="st12" x1="203.3" y1="65.1" x2="203.3" y2="67.3"/>
<line class="st12" x1="204.1" y1="65.1" x2="204.1" y2="67.3"/>
<line class="st12" x1="204.8" y1="65.1" x2="204.8" y2="67.3"/>
<line class="st12" x1="205.4" y1="65.1" x2="205.4" y2="67.3"/>
<line class="st12" x1="206.2" y1="65.1" x2="206.2" y2="67.3"/>
<line class="st12" x1="206.9" y1="65.1" x2="206.9" y2="67.3"/>
<line class="st11" x1="186.8" y1="65.1" x2="186.8" y2="67.3"/>
<line class="st11" x1="187.5" y1="65.1" x2="187.5" y2="67.3"/>
<line class="st11" x1="188.2" y1="65.1" x2="188.2" y2="67.3"/>
<line class="st11" x1="189" y1="65.1" x2="189" y2="67.3"/>
<line class="st11" x1="189.7" y1="65.1" x2="189.7" y2="67.3"/>
<line class="st11" x1="190.4" y1="65.1" x2="190.4" y2="67.3"/>
<line class="st11" x1="191.2" y1="65.1" x2="191.2" y2="67.3"/>
<line class="st11" x1="191.9" y1="65.1" x2="191.9" y2="67.3"/>
<line class="st11" x1="192.7" y1="65.1" x2="192.7" y2="67.3"/>
<rect x="170.8" y="147.2" class="st9" width="82" height="8.6"/>
<rect x="170.8" y="164.3" class="st9" width="135.6" height="8.6"/>
<rect x="170.8" y="181.5" class="st9" width="135.6" height="8.6"/>
<rect x="170.8" y="198.6" class="st9" width="135.6" height="8.6"/>
<line class="st0" x1="5" y1="59.2" x2="36.8" y2="59.2"/>
<line class="st0" x1="22.1" y1="48.2" x2="40.4" y2="48.2"/>
<line class="st0" x1="47.1" y1="59.2" x2="60.4" y2="59.2"/>
<path class="st0" d="M98.2,26.8h-8.9c-1-8.5-8.3-15.1-17.1-15.1c-3.5,0-6.8,1.1-9.6,2.9C57.9,7.3,49.8,2.5,40.5,2.5
	c-13.9,0-25.2,10.7-26.2,24.3H1"/>
<line class="st0" x1="376.7" y1="131.5" x2="408.4" y2="131.5"/>
<line class="st0" x1="418.7" y1="131.5" x2="432" y2="131.5"/>
<path class="st0" d="M469.8,116.4h-8.9c-1-8.5-8.3-15.1-17.1-15.1c-3.5,0-6.8,1.1-9.6,2.9c-4.7-7.3-12.8-12.1-22.1-12.1
	c-13.9,0-25.2,10.7-26.2,24.3h-13.3"/>
<line class="st0" x1="35.9" y1="180.3" x2="80.6" y2="180.3"/>
<line class="st0" x1="85.9" y1="180.3" x2="100.2" y2="180.3"/>
<line class="st0" x1="63.6" y1="191.3" x2="80.6" y2="191.3"/>
<line class="st0" x1="93.1" y1="191.3" x2="115.9" y2="191.3"/>
<line class="st0" x1="287.1" y1="54" x2="331.8" y2="54"/>
<line class="st0" x1="337.1" y1="54" x2="351.4" y2="54"/>
<line class="st0" x1="314.8" y1="65" x2="331.8" y2="65"/>
<line class="st0" x1="344.3" y1="65" x2="367.1" y2="65"/>
</svg>
