<!-- Generator: Adobe Illustrator 21.1.0, SVG Export Plug-In  -->
<svg version="1.1"
	 xmlns="http://www.w3.org/2000/svg" xmlns:xlink="http://www.w3.org/1999/xlink" xmlns:a="http://ns.adobe.com/AdobeSVGViewerExtensions/3.0/"
	 x="0px" y="0px" width="451.9px" height="282.4px" viewBox="0 0 451.9 282.4" style="enable-background:new 0 0 451.9 282.4;"
	 xml:space="preserve">
<style type="text/css">
	.st0{fill:#FAE4BD;}
	.st1{fill:#0D1836;}
	.st2{fill:#FCF6EE;}
	.st3{fill:#53BAC0;}
	.st4{fill-rule:evenodd;clip-rule:evenodd;fill:#FCF6EE;}
	.st5{fill:#FCF6EE;stroke:#2C4251;stroke-miterlimit:10;}
	.st6{fill:none;stroke:#2C4251;stroke-width:2;stroke-linecap:round;stroke-miterlimit:10;}
	.st7{fill:none;}
</style>
<defs>
</defs>
<path class="st0" d="M247.3,39.4L207.7,71L176,26.5c0,0-2-3-6.3-5.3V18c0-7.1-5.8-12.8-12.8-12.8h-6.5c-3.7,0-6.7,3-6.7,6.7v59.1
	c-2.7,26.4-15.7,34.6-24.1,55.5c-9.2,22.9,7.5,33.2,7.2,37.8c-0.3,4.1-54.8,92.7-67.2,112.8c-0.6,1-1.1,1.8-1.5,2.4
	c-0.6,1-1,1.6-1,1.6v1.4l85.7-1.4c0,0,38.6-74.9,40.6-73.9c2,1,27.2-2.4,37.2-3.7s49.2-45.8,49.2-45.8l10.2-127.8L247.3,39.4z"/>
<path class="st1" d="M277,210.5h-95.3c-6.6,0-12-5.4-12-12V13.1c0-6.6,5.4-12,12-12H277c6.6,0,12,5.4,12,12v185.4
	C289,205.1,283.6,210.5,277,210.5z"/>
<circle class="st2" cx="229.3" cy="196.3" r="9.8"/>
<path class="st3" d="M274.8,179.8H183c-3.6,0-6.6-2.9-6.6-6.6v-149c0-3.6,2.9-6.6,6.6-6.6h91.8c3.6,0,6.6,2.9,6.6,6.6v149
	C281.4,176.9,278.5,179.8,274.8,179.8z"/>
<path class="st4" d="M210.3,122.3c-0.4,0.6-0.8,1.1-1.2,1.7c-1.3,1.8-2.6,3.7-3.9,5.5c0,0.1-0.1,0.1-0.1,0.1
	c-0.3,0.3-0.6,0.3-0.9-0.1c-0.5-0.7-1-1.4-1.5-2.1c-1.2-1.6-2.3-3.3-3.5-4.9c0-0.1-0.1-0.1-0.1-0.1c0,0,0,0,0,0c0,0.1,0,0.1,0,0.2
	c0,3.1,0,6.2,0,9.3c0,0,0,0,0,0.1c0,0.8-0.7,1.2-1.4,0.9c-0.3-0.1-0.4-0.4-0.4-0.7c0-0.1,0-0.1,0-0.2c0-4.6,0-9.2,0-13.9
	c0-0.1,0-0.2,0-0.3c0.1-0.2,0.3-0.3,0.5-0.2c0.1,0.1,0.2,0.2,0.3,0.3c2,2.9,4,5.7,6,8.6c0.2,0.3,0.4,0.5,0.5,0.8
	c0.1,0.1,0.1,0.1,0.2,0c0.9-1.3,1.8-2.5,2.6-3.8c1.3-1.9,2.6-3.7,3.9-5.6c0.1-0.2,0.3-0.3,0.5-0.3c0.2,0,0.3,0.1,0.3,0.3
	c0,0.1,0,0.1,0,0.2c0,4.6,0,9.3,0,13.9c0,0.3,0,0.6-0.3,0.8c-0.5,0.4-1.3,0.1-1.5-0.4c0-0.1,0-0.3,0-0.4c0-3.2,0-6.3,0-9.5
	C210.3,122.5,210.3,122.4,210.3,122.3C210.3,122.3,210.3,122.3,210.3,122.3z"/>
<path class="st4" d="M248.6,127.4c0.1,0.1,0.3,0.1,0.4,0.2c0.6,0.4,1,0.9,1.4,1.4c0.6,0.9,1.2,1.7,1.8,2.6c0.2,0.2,0.3,0.5,0.2,0.8
	c0,0.3-0.3,0.5-0.5,0.6c-0.3,0.1-0.6,0.1-0.8-0.2c-0.1-0.1-0.2-0.2-0.3-0.4c-0.7-1-1.4-2-2.2-3c-0.3-0.5-0.8-0.9-1.3-1.1
	c-0.2-0.1-0.5-0.2-0.8-0.2c-0.4,0-0.8,0-1.3,0c0,0.1,0,0.1,0,0.2c0,1.2,0,2.5,0,3.7c0,0.1,0,0.2,0,0.4c0,0.2-0.2,0.4-0.4,0.5
	c-0.3,0.1-0.6,0.1-0.8,0c-0.3-0.1-0.4-0.3-0.5-0.6c0-0.1,0-0.2,0-0.4c0-4.9,0-9.8,0-14.7c0-0.2,0-0.3,0.1-0.5c0.1-0.4,0.5-0.5,1-0.5
	c0.4,0,0.6,0.3,0.7,0.7c0,0.1,0,0.2,0,0.3c0,3,0,6,0,9c0,0.1,0,0.1,0,0.2c0.4,0,0.8,0,1.2,0c0.5,0,1-0.2,1.4-0.6
	c0.3-0.3,0.6-0.6,0.9-0.9c0.6-0.7,1.3-1.5,1.9-2.2c0.5-0.6,1.2-0.3,1.4,0.2c0.1,0.3,0.1,0.6-0.1,0.8c-0.3,0.4-0.6,0.7-0.9,1
	c-0.5,0.5-0.9,1.1-1.4,1.6C249.3,126.8,249,127.1,248.6,127.4z"/>
<path class="st4" d="M264.7,127.8c0,1.3,0,2.6,0,3.9c0,0.3,0,0.6-0.1,0.8c-0.1,0.3-0.3,0.5-0.6,0.5c-0.3,0-0.6-0.1-0.7-0.4
	c-0.1-0.2-0.1-0.5-0.2-0.7c0,0,0-0.1,0-0.1c0-0.1-0.1-0.1-0.1-0.2c-0.1,0-0.1,0.1-0.2,0.1c-1.1,1-2.3,1.5-3.8,1.4
	c-0.7,0-1.5-0.2-2.1-0.5c-1.2-0.6-2-1.5-2.4-2.8c-0.3-0.8-0.4-1.7-0.3-2.5c0.1-1.3,0.7-2.4,1.6-3.3c1.1-1.1,2.5-1.5,4-1.4
	c1.1,0.1,2.1,0.5,3,1.3c0,0,0.1,0.1,0.1,0.1c0.1,0.1,0.1,0.1,0.2-0.1c0-0.2,0.1-0.5,0.1-0.7c0.1-0.5,0.6-0.8,1.1-0.6
	c0.3,0.1,0.4,0.4,0.4,0.7c0,0.5,0,1,0,1.4C264.7,125.8,264.7,126.8,264.7,127.8z M255.8,127.9c0,0.5,0.1,1,0.2,1.5
	c0.2,0.8,0.7,1.4,1.4,1.9c0.8,0.5,1.6,0.6,2.5,0.5c1.1-0.1,2-0.7,2.5-1.7c0.6-1.1,0.6-2.4,0.2-3.6c-0.3-0.9-0.9-1.6-1.7-2
	c-0.7-0.3-1.4-0.4-2.1-0.3c-0.7,0.1-1.4,0.4-1.9,0.9C256.2,125.8,255.9,126.7,255.8,127.9z"/>
<path class="st4" d="M224,123.5c0,0.1-0.1,0.3-0.1,0.4c-1.4,3.3-2.8,6.6-4.2,9.8c-0.5,1.1-1,2.3-1.5,3.4c-0.1,0.1-0.1,0.3-0.2,0.4
	c-0.2,0.3-0.6,0.4-1,0.2c-0.4-0.2-0.5-0.6-0.4-0.9c0.2-0.4,0.4-0.9,0.6-1.3c0.4-0.9,0.8-1.9,1.2-2.8c0-0.1,0-0.2,0-0.2
	c-1.2-2.8-2.5-5.7-3.7-8.5c-0.1-0.2-0.1-0.4-0.1-0.6c0-0.4,0.3-0.6,0.8-0.7c0.3,0,0.7,0.2,0.8,0.5c0.2,0.6,0.5,1.1,0.7,1.7
	c0.8,1.8,1.5,3.7,2.3,5.5c0,0.1,0.1,0.1,0.1,0.1c0,0,0.1-0.1,0.1-0.1c1-2.4,2-4.7,2.9-7.1c0.1-0.3,0.3-0.6,0.7-0.7
	C223.4,122.5,224,122.9,224,123.5z"/>
<path class="st4" d="M227.7,124.7c0,2.4,0,4.9,0,7.3c0,0.1,0,0.2,0,0.3c0,0.5-0.3,0.7-0.8,0.7c-0.1,0-0.3,0-0.4,0
	c-0.3-0.1-0.5-0.3-0.6-0.7c0-0.1,0-0.1,0-0.2c0-4.9,0-9.9,0-14.8c0-0.4,0.1-0.7,0.5-0.9c0.6-0.3,1.2,0.1,1.3,0.7c0,0.1,0,0.2,0,0.2
	C227.7,119.9,227.7,122.3,227.7,124.7z"/>
<path class="st4" d="M236.9,131.5"/>
<path class="st4" d="M240.7,125.8c-0.4-1-1-1.9-2-2.5c-1.1-0.7-2.4-1-3.7-0.8c-1.1,0.1-2.1,0.6-2.9,1.3c-1,0.9-1.6,2-1.7,3.4
	c-0.1,1,0,2,0.5,3c0.4,0.9,1,1.6,1.8,2.1c0.2,0.2,0.5,0.3,0.8,0.4c0,0,0,0,0,0c0.2,0.1,0.3-0.1,0.3-0.1l0.5-0.9l0,0
	c0,0,0.1-0.2-0.2-0.3c0,0,0,0,0,0c-0.1-0.1-0.3-0.1-0.4-0.2c-0.7-0.5-1.1-1.1-1.4-1.9c-0.2-0.5-0.2-1-0.2-1.5c0-1.1,0.3-2,1.1-2.8
	c0.7-0.7,1.6-1.1,2.6-1c1.8,0,3.1,1.2,3.5,2.9c0.2,1,0.1,2.1-0.4,3c-0.4,0.7-1,1.3-1.7,1.6c-0.2,0.1-0.2,0.3-0.2,0.3l0,0l0.5,0.9
	c0,0,0.1,0.2,0.3,0.1c0.8-0.3,1.5-0.8,2.1-1.5c0.8-1,1.2-2.2,1.2-3.5C241,127.1,240.9,126.5,240.7,125.8z"/>
<path class="st0" d="M296.4,123.8h-44.7c-5.6,0-10.1-4.6-10.1-10.1v-4.2c0-5.6,4.6-10.1,10.1-10.1h44.7c5.6,0,10.1,4.6,10.1,10.1
	v4.2C306.5,119.3,301.9,123.8,296.4,123.8z"/>
<path class="st0" d="M298.2,95.2h-36.7c-5.9,0-10.8-4.8-10.8-10.8V80c0-5.9,4.8-10.8,10.8-10.8h36.7c5.9,0,10.8,4.8,10.8,10.8v4.4
	C308.9,90.4,304.1,95.2,298.2,95.2z"/>
<path class="st0" d="M295.4,147.6H271c-5.4,0-9.8-4.4-9.8-9.8v-0.5c0-5.4,4.4-9.8,9.8-9.8h24.4c5.4,0,9.8,4.4,9.8,9.8v0.5
	C305.2,143.2,300.8,147.6,295.4,147.6z"/>
<path class="st0" d="M292.4,65.2h-22.3c-5.9,0-10.8-4.8-10.8-10.8V50c0-5.9,4.8-10.8,10.8-10.8h22.3c5.9,0,10.8,4.8,10.8,10.8v4.4
	C303.2,60.3,298.3,65.2,292.4,65.2z"/>
<path class="st2" d="M240.3,12.2H219c-0.6,0-1.1-0.5-1.1-1.1v-0.4c0-0.6,0.5-1.1,1.1-1.1h21.4c0.6,0,1.1,0.5,1.1,1.1v0.4
	C241.4,11.7,240.9,12.2,240.3,12.2z"/>
<path class="st5" d="M231.8,201.1H227c-1.1,0-1.9-0.9-1.9-1.9v-5.3c0-1.1,0.9-1.9,1.9-1.9h4.8c1.1,0,1.9,0.9,1.9,1.9v5.3
	C233.7,200.2,232.9,201.1,231.8,201.1z"/>
<path class="st4" d="M250.9,68.8c-1.5-3.9-3.9-7-7.4-9.2c-4.2-2.7-8.9-3.6-13.9-3c-4.1,0.5-7.8,2.1-10.9,4.9
	c-3.8,3.4-6,7.7-6.5,12.7c-0.4,3.9,0.1,7.7,1.8,11.2c1.5,3.3,3.8,5.9,6.9,7.8c0.9,0.6,1.9,1,2.8,1.4c0,0,0.1,0,0.2,0
	c0.8,0.3,1.2-0.2,1.3-0.3l1.8-3.4l0.1-0.2c0,0,0.3-0.7-0.9-1.2c0,0,0,0,0,0c-0.5-0.2-1-0.5-1.5-0.8c-2.6-1.7-4.2-4.1-5.2-7
	c-0.6-1.8-0.8-3.6-0.8-5.4c0.1-4,1.2-7.6,4.1-10.6c2.7-2.7,5.9-4,9.7-3.9c6.8,0,11.7,4.7,13,11c0.8,3.9,0.4,7.7-1.5,11.2
	c-1.5,2.8-3.6,4.7-6.2,5.8c-0.9,0.5-0.7,1.1-0.7,1.1l0.1,0.2l1.8,3.3c0,0,0.4,0.6,1.2,0.3c3-1.2,5.6-3,7.7-5.6
	c3-3.7,4.4-8.1,4.4-13.1C252.2,73.6,251.8,71.2,250.9,68.8z"/>
<line class="st6" x1="3.8" y1="241" x2="78.2" y2="241"/>
<line class="st6" x1="14.2" y1="216.3" x2="14.2" y2="241"/>
<line class="st6" x1="55.2" y1="204" x2="55.2" y2="241"/>
<line class="st6" x1="7.2" y1="216.3" x2="13.8" y2="222.9"/>
<line class="st6" x1="17.2" y1="228.6" x2="14.2" y2="231.6"/>
<line class="st6" x1="48.2" y1="206" x2="55.3" y2="213.1"/>
<line class="st6" x1="60.8" y1="225.3" x2="56.3" y2="229.8"/>
<circle class="st6" cx="14.2" cy="212.2" r="13.2"/>
<circle class="st6" cx="57.2" cy="200.6" r="19"/>
<line class="st6" x1="416.1" y1="204" x2="416.1" y2="241"/>
<line class="st6" x1="409.1" y1="206" x2="416.3" y2="213.1"/>
<line class="st6" x1="421.8" y1="225.3" x2="417.3" y2="229.8"/>
<circle class="st6" cx="418.1" cy="200.6" r="19"/>
<line class="st6" x1="38.1" y1="105.6" x2="69.8" y2="105.6"/>
<line class="st6" x1="55.2" y1="94.6" x2="73.5" y2="94.6"/>
<line class="st6" x1="80.2" y1="105.6" x2="93.5" y2="105.6"/>
<line class="st6" x1="305.8" y1="191.1" x2="350.4" y2="191.1"/>
<line class="st6" x1="355.8" y1="191.1" x2="370.1" y2="191.1"/>
<line class="st6" x1="333.4" y1="202.1" x2="350.4" y2="202.1"/>
<line class="st6" x1="362.9" y1="202.1" x2="385.8" y2="202.1"/>
<line class="st6" x1="286.8" y1="219.1" x2="320.8" y2="219.1"/>
<line class="st7" x1="327.5" y1="12.6" x2="350.5" y2="12.6"/>
<line class="st6" x1="355.8" y1="39.2" x2="389.8" y2="39.2"/>
<path class="st6" d="M131.2,73.2h-8.9c-1-8.5-8.3-15.1-17.1-15.1c-3.5,0-6.8,1.1-9.6,2.9C91,53.7,82.9,48.9,73.6,48.9
	c-13.9,0-25.2,10.7-26.2,24.3H34.1"/>
<path class="st6" d="M301.9,25.3h8.9c1-8.5,8.3-15.1,17.1-15.1c3.5,0,6.8,1.1,9.6,2.9C342.1,5.8,350.3,1,359.6,1
	c13.9,0,25.2,10.7,26.2,24.3h13.3"/>
<line class="st6" x1="169.7" y1="241" x2="450.9" y2="241"/>
</svg>
