<!-- Generator: Adobe Illustrator 21.1.0, SVG Export Plug-In  -->
<svg version="1.1"
	 xmlns="http://www.w3.org/2000/svg" xmlns:xlink="http://www.w3.org/1999/xlink" xmlns:a="http://ns.adobe.com/AdobeSVGViewerExtensions/3.0/"
	 x="0px" y="0px" width="445.1px" height="280.6px" viewBox="0 0 445.1 280.6" style="enable-background:new 0 0 445.1 280.6;"
	 xml:space="preserve">
<style type="text/css">
	.st0{fill:#AAD2D4;}
	.st1{fill:#FAE4BD;}
	.st2{fill:#0D1836;}
	.st3{fill:#FCF6EE;}
	.st4{fill:#263A74;}
	.st5{fill:none;stroke:#2C4251;stroke-width:2;stroke-linecap:round;stroke-miterlimit:10;}
	.st6{fill:#53BAC0;}
	.st7{fill:#A9AFC7;}
</style>
<defs>
</defs>
<path class="st0" d="M381.1,148.6H270.9c-3.2,0-5.8-2.6-5.8-5.8V29.8c0-3.2,2.6-5.8,5.8-5.8h110.2c3.2,0,5.8,2.6,5.8,5.8v113.1
	C386.9,146.1,384.3,148.6,381.1,148.6z"/>
<path class="st1" d="M170.8,280.6H60.5c-3.2,0-5.8-2.6-5.8-5.8V161.8c0-3.2,2.6-5.8,5.8-5.8h110.2c3.2,0,5.8,2.6,5.8,5.8v113.1
	C176.5,278,173.9,280.6,170.8,280.6z"/>
<path class="st2" d="M345.6,245H88.7c-3.2,0-5.8-2.6-5.8-5.8V54.2c0-3.2,2.6-5.8,5.8-5.8h256.9c3.2,0,5.8,2.6,5.8,5.8v185.1
	C351.4,242.5,348.8,245,345.6,245z"/>
<path class="st3" d="M285.7,169.6H102.5c-3.2,0-5.8-2.6-5.8-5.8v-39.9c0-3.2,2.6-5.8,5.8-5.8h183.2c3.2,0,5.8,2.6,5.8,5.8v39.9
	C291.5,167,288.9,169.6,285.7,169.6z"/>
<path class="st0" d="M320.2,112.2H137c-3.2,0-5.8-2.6-5.8-5.8V66.5c0-3.2,2.6-5.8,5.8-5.8h183.2c3.2,0,5.8,2.6,5.8,5.8v39.9
	C326,109.6,323.4,112.2,320.2,112.2z"/>
<path class="st0" d="M320.2,226.8H137c-3.2,0-5.8-2.6-5.8-5.8v-39.9c0-3.2,2.6-5.8,5.8-5.8h183.2c3.2,0,5.8,2.6,5.8,5.8V221
	C326,224.2,323.4,226.8,320.2,226.8z"/>
<rect x="152.5" y="135" class="st4" width="50.4" height="5.3"/>
<rect x="152.5" y="145.5" class="st4" width="83.3" height="5.3"/>
<line class="st5" x1="36.5" y1="40.4" x2="68.2" y2="40.4"/>
<line class="st5" x1="78.5" y1="40.4" x2="91.8" y2="40.4"/>
<path class="st5" d="M129.6,25.3h-8.9c-1-8.5-8.3-15.1-17.1-15.1c-3.5,0-6.8,1.1-9.6,2.9C89.4,5.8,81.2,1,71.9,1
	C58,1,46.7,11.7,45.7,25.3H32.4"/>
<line class="st5" x1="364.1" y1="55.2" x2="408.8" y2="55.2"/>
<line class="st5" x1="414.1" y1="55.2" x2="428.4" y2="55.2"/>
<line class="st5" x1="391.8" y1="66.2" x2="408.8" y2="66.2"/>
<line class="st5" x1="421.3" y1="66.2" x2="444.1" y2="66.2"/>
<line class="st5" x1="1" y1="247.6" x2="45.7" y2="247.6"/>
<line class="st5" x1="51" y1="247.6" x2="65.3" y2="247.6"/>
<line class="st5" x1="28.7" y1="258.6" x2="45.7" y2="258.6"/>
<line class="st5" x1="58.2" y1="258.6" x2="81" y2="258.6"/>
<path class="st6" d="M132.2,159.8h-11.1c-5.5,0-10-4.5-10-10v-11.1c0-5.5,4.5-10,10-10h11.1c5.5,0,10,4.5,10,10v11.1
	C142.2,155.3,137.7,159.8,132.2,159.8z"/>
<rect x="189" y="77.1" class="st7" width="50.4" height="5.3"/>
<rect x="189" y="87.6" class="st7" width="83.3" height="5.3"/>
<path class="st7" d="M168.7,101.9h-11.1c-5.5,0-10-4.5-10-10V80.8c0-5.5,4.5-10,10-10h11.1c5.5,0,10,4.5,10,10v11.1
	C178.7,97.4,174.2,101.9,168.7,101.9z"/>
<rect x="189" y="193.5" class="st7" width="50.4" height="5.3"/>
<rect x="189" y="204.1" class="st7" width="83.3" height="5.3"/>
<path class="st7" d="M168.7,218.3h-11.1c-5.5,0-10-4.5-10-10v-11.1c0-5.5,4.5-10,10-10h11.1c5.5,0,10,4.5,10,10v11.1
	C178.7,213.9,174.2,218.3,168.7,218.3z"/>
</svg>
