<!-- Generator: Adobe Illustrator 21.1.0, SVG Export Plug-In  -->
<svg version="1.1"
	 xmlns="http://www.w3.org/2000/svg" xmlns:xlink="http://www.w3.org/1999/xlink" xmlns:a="http://ns.adobe.com/AdobeSVGViewerExtensions/3.0/"
	 x="0px" y="0px" width="421.3px" height="195.8px" viewBox="0 0 421.3 195.8" style="enable-background:new 0 0 421.3 195.8;"
	 xml:space="preserve">
<style type="text/css">
	.st0{fill:#FAE4BD;stroke:#2C4251;stroke-width:3;stroke-miterlimit:10;}
	.st1{fill:#AAD2D4;stroke:#2C4251;stroke-width:3;stroke-miterlimit:10;}
	.st2{fill:none;stroke:#2C4251;stroke-width:2;stroke-linecap:round;stroke-miterlimit:10;}
	.st3{fill:#2C4251;}
</style>
<defs>
</defs>
<path class="st0" d="M198.4,190.1H88.1c-3.2,0-5.8-2.6-5.8-5.8V71.3c0-3.2,2.6-5.8,5.8-5.8h110.2c3.2,0,5.8,2.6,5.8,5.8v113.1
	C204.1,187.5,201.6,190.1,198.4,190.1z"/>
<path class="st1" d="M269.5,127.8H159.2c-3.2,0-5.8-2.6-5.8-5.8V9c0-3.2,2.6-5.8,5.8-5.8h110.2c3.2,0,5.8,2.6,5.8,5.8V122
	C275.2,125.2,272.6,127.8,269.5,127.8z"/>
<line class="st2" x1="3.8" y1="194.8" x2="78.2" y2="194.8"/>
<line class="st2" x1="14.2" y1="170.1" x2="14.2" y2="194.8"/>
<line class="st2" x1="55.2" y1="157.8" x2="55.2" y2="194.8"/>
<line class="st2" x1="7.2" y1="170.1" x2="13.8" y2="176.7"/>
<line class="st2" x1="17.2" y1="182.4" x2="14.2" y2="185.4"/>
<line class="st2" x1="48.2" y1="159.8" x2="55.3" y2="166.9"/>
<line class="st2" x1="60.8" y1="179.1" x2="56.3" y2="183.6"/>
<circle class="st2" cx="14.2" cy="165.9" r="13.2"/>
<circle class="st2" cx="57.2" cy="154.3" r="19"/>
<line class="st2" x1="385.6" y1="157.8" x2="385.6" y2="194.8"/>
<line class="st2" x1="378.6" y1="159.8" x2="385.7" y2="166.9"/>
<line class="st2" x1="391.2" y1="179.1" x2="386.7" y2="183.6"/>
<circle class="st2" cx="387.6" cy="154.3" r="19"/>
<line class="st2" x1="7.6" y1="59.4" x2="39.3" y2="59.4"/>
<line class="st2" x1="24.6" y1="48.4" x2="43" y2="48.4"/>
<line class="st2" x1="49.6" y1="59.4" x2="63" y2="59.4"/>
<line class="st2" x1="275.2" y1="144.9" x2="319.9" y2="144.9"/>
<line class="st2" x1="325.2" y1="144.9" x2="339.6" y2="144.9"/>
<line class="st2" x1="302.9" y1="155.9" x2="319.9" y2="155.9"/>
<line class="st2" x1="332.4" y1="155.9" x2="355.2" y2="155.9"/>
<line class="st2" x1="256.2" y1="172.9" x2="290.2" y2="172.9"/>
<line class="st2" x1="330.5" y1="39.2" x2="364.5" y2="39.2"/>
<path class="st2" d="M100.7,27h-8.9c-1-8.5-8.3-15.1-17.1-15.1c-3.5,0-6.8,1.1-9.6,2.9C60.5,7.5,52.3,2.7,43,2.7
	C29.2,2.7,17.8,13.4,16.8,27H3.5"/>
<path class="st2" d="M276.6,25.3h8.9c1-8.5,8.3-15.1,17.1-15.1c3.5,0,6.8,1.1,9.6,2.9C316.9,5.8,325,1,334.3,1
	c13.9,0,25.2,10.7,26.2,24.3h13.3"/>
<line class="st2" x1="139.1" y1="194.8" x2="420.3" y2="194.8"/>
<g>
	<g>
		<path class="st3" d="M93,88.2c-0.6,28.2-0.6,56.4,0.1,84.7c0.1,3.2,5.1,3.2,5,0c-0.7-28.2-0.7-56.4-0.1-84.7C98,85,93,85,93,88.2
			L93,88.2z"/>
	</g>
</g>
<g>
	<g>
		<path class="st3" d="M136.7,180.1c17.3,0,34.7,0,52,0c3.2,0,3.2-5,0-5c-17.3,0-34.7,0-52,0C133.5,175.1,133.5,180.1,136.7,180.1
			L136.7,180.1z"/>
	</g>
</g>
</svg>
